<svg width="31" height="30" viewBox="0 0 31 30" fill="none" xmlns="http://www.w3.org/2000/svg">
<mask id="path-1-inside-1_364_2260" fill="white">
<path d="M0.5 24.2858C0.5 16.0015 7.21573 9.28577 15.5 9.28577C23.7843 9.28577 30.5 16.0015 30.5 24.2858V27.8572C30.5 28.6462 29.8604 29.2858 29.0714 29.2858H1.92857C1.13959 29.2858 0.5 28.6462 0.5 27.8572V24.2858Z"/>
</mask>
<path d="M28.9 24.2858V27.8572H32.1V24.2858H28.9ZM29.0714 27.6858H1.92857V30.8858H29.0714V27.6858ZM2.1 27.8572V24.2858H-1.1V27.8572H2.1ZM15.5 10.8858C22.9006 10.8858 28.9 16.8852 28.9 24.2858H32.1C32.1 15.1178 24.6679 7.68577 15.5 7.68577V10.8858ZM15.5 7.68577C6.33208 7.68577 -1.1 15.1178 -1.1 24.2858H2.1C2.1 16.8852 8.09939 10.8858 15.5 10.8858V7.68577ZM1.92857 27.6858C2.02325 27.6858 2.1 27.7625 2.1 27.8572H-1.1C-1.1 29.5298 0.255939 30.8858 1.92857 30.8858V27.6858ZM28.9 27.8572C28.9 27.7625 28.9768 27.6858 29.0714 27.6858V30.8858C30.7441 30.8858 32.1 29.5298 32.1 27.8572H28.9Z" fill="#8C8C8C" mask="url(#path-1-inside-1_364_2260)"/>
<path d="M1.92857 22.1428H11.3036M20.9911 22.1428H30.0536" stroke="#8C8C8C" stroke-width="1.6"/>
<path d="M20.4143 22.8571V28.4857H10.5857V22.8571C10.5857 20.143 12.7859 17.9428 15.5 17.9428C18.2141 17.9428 20.4143 20.143 20.4143 22.8571Z" stroke="#8C8C8C" stroke-width="1.6"/>
<path d="M15.5 9.99995L15.5 0.714233" stroke="#8C8C8C" stroke-width="1.6"/>
<path d="M14.7857 1.42847H23.2232L21.3482 3.30347L22.9107 5.17847H15.4107" stroke="#8C8C8C" stroke-width="1.6"/>
</svg>
