<svg width="25" height="24" viewBox="0 0 25 24" fill="none" xmlns="http://www.w3.org/2000/svg">
<path d="M23.0011 12.2331C23.0011 11.3698 22.9296 10.7398 22.7749 10.0864H12.7153V13.983H18.6201C18.5011 14.9514 17.8582 16.4097 16.4296 17.3897L16.4096 17.5202L19.5902 19.9349L19.8106 19.9564C21.8343 18.1247 23.0011 15.4297 23.0011 12.2331Z" fill="#4285F4"/>
<path d="M12.7147 22.5001C15.6075 22.5001 18.036 21.5667 19.8099 19.9567L16.4289 17.39C15.5242 18.0083 14.3099 18.44 12.7147 18.44C9.88138 18.44 7.47664 16.6083 6.61942 14.0767L6.49377 14.0871L3.18652 16.5955L3.14326 16.7133C4.90514 20.1433 8.52419 22.5001 12.7147 22.5001Z" fill="#34A853"/>
<path d="M6.62005 14.0767C6.39386 13.4234 6.26296 12.7233 6.26296 12C6.26296 11.2767 6.39386 10.5767 6.60815 9.92337L6.60216 9.78423L3.25345 7.2356L3.14388 7.28667C2.41772 8.71002 2.00105 10.3084 2.00105 12C2.00105 13.6917 2.41772 15.29 3.14388 16.7133L6.62005 14.0767Z" fill="#FBBC05"/>
<path d="M12.7147 5.55997C14.7266 5.55997 16.0837 6.41163 16.8576 7.12335L19.8814 4.23C18.0243 2.53834 15.6076 1.5 12.7147 1.5C8.52422 1.5 4.90515 3.85665 3.14326 7.28662L6.60754 9.92332C7.47667 7.39166 9.88142 5.55997 12.7147 5.55997Z" fill="#EB4335"/>
</svg>
