<svg width="23" height="22" viewBox="0 0 23 22" fill="none" xmlns="http://www.w3.org/2000/svg">
<path d="M21.5 15.9201V18.9201C21.5011 19.1986 21.4441 19.4743 21.3325 19.7294C21.2209 19.9846 21.0573 20.2137 20.8521 20.402C20.6469 20.5902 20.4046 20.7336 20.1408 20.8228C19.8769 20.912 19.5974 20.9452 19.32 20.9201C16.2428 20.5857 13.287 19.5342 10.69 17.8501C8.27383 16.3148 6.22534 14.2663 4.69 11.8501C2.99998 9.2413 1.94824 6.27109 1.62 3.1801C1.59501 2.90356 1.62788 2.62486 1.7165 2.36172C1.80513 2.09859 1.94757 1.85679 2.13477 1.65172C2.32196 1.44665 2.54981 1.28281 2.80379 1.17062C3.05778 1.05843 3.33234 1.00036 3.61 1.0001H6.61C7.09531 0.995321 7.56579 1.16718 7.93376 1.48363C8.30173 1.80008 8.54208 2.23954 8.61 2.7201C8.73662 3.68016 8.97145 4.62282 9.31 5.5301C9.44455 5.88802 9.47366 6.27701 9.39391 6.65098C9.31415 7.02494 9.12886 7.36821 8.86 7.6401L7.59 8.9101C9.01356 11.4136 11.0865 13.4865 13.59 14.9101L14.86 13.6401C15.1319 13.3712 15.4752 13.1859 15.8491 13.1062C16.2231 13.0264 16.6121 13.0556 16.97 13.1901C17.8773 13.5286 18.8199 13.7635 19.78 13.8901C20.2658 13.9586 20.7094 14.2033 21.0265 14.5776C21.3437 14.9519 21.5122 15.4297 21.5 15.9201Z" stroke="#181818" stroke-width="2" stroke-linecap="round" stroke-linejoin="round"/>
</svg>
